<?xml version="1.0" encoding="UTF-8" standalone="no"?>
<svg
   xmlns:dc="http://purl.org/dc/elements/1.1/"
   xmlns:cc="http://creativecommons.org/ns#"
   xmlns:rdf="http://www.w3.org/1999/02/22-rdf-syntax-ns#"
   xmlns:svg="http://www.w3.org/2000/svg"
   xmlns="http://www.w3.org/2000/svg"
   xmlns:sodipodi="http://sodipodi.sourceforge.net/DTD/sodipodi-0.dtd"
   xmlns:inkscape="http://www.inkscape.org/namespaces/inkscape"
   id="Capa_1"
   enable-background="new 0 0 512 512"
   height="512"
   viewBox="0 0 512 512"
   width="512"
   version="1.1"
   sodipodi:docname="logo.svg"
   inkscape:version="0.92.3 (2405546, 2018-03-11)">
  <metadata
     id="metadata31">
    <rdf:RDF>
      <cc:Work
         rdf:about="">
        <dc:format>image/svg+xml</dc:format>
        <dc:type
           rdf:resource="http://purl.org/dc/dcmitype/StillImage" />
        <dc:title></dc:title>
      </cc:Work>
    </rdf:RDF>
  </metadata>
  <defs
     id="defs29">
    <marker
       inkscape:stockid="Arrow1Lstart"
       orient="auto"
       refY="0.0"
       refX="0.0"
       id="marker1170"
       style="overflow:visible"
       inkscape:isstock="true">
      <path
         id="path1168"
         d="M 0.0,0.0 L 5.0,-5.0 L -12.5,0.0 L 5.0,5.0 L 0.0,0.0 z "
         style="fill-rule:evenodd;stroke:none;stroke-width:1pt;stroke-opacity:1;fill:#000000;fill-opacity:1"
         transform="scale(0.8) translate(12.5,0)" />
    </marker>
    <marker
       inkscape:stockid="Arrow1Lstart"
       orient="auto"
       refY="0.0"
       refX="0.0"
       id="marker1142"
       style="overflow:visible"
       inkscape:isstock="true">
      <path
         id="path1140"
         d="M 0.0,0.0 L 5.0,-5.0 L -12.5,0.0 L 5.0,5.0 L 0.0,0.0 z "
         style="fill-rule:evenodd;stroke:none;stroke-width:1pt;stroke-opacity:1;fill:#000000;fill-opacity:1"
         transform="scale(0.8) translate(12.5,0)" />
    </marker>
    <marker
       inkscape:stockid="Arrow1Lstart"
       orient="auto"
       refY="0.0"
       refX="0.0"
       id="marker1120"
       style="overflow:visible"
       inkscape:isstock="true">
      <path
         id="path1118"
         d="M 0.0,0.0 L 5.0,-5.0 L -12.5,0.0 L 5.0,5.0 L 0.0,0.0 z "
         style="fill-rule:evenodd;stroke:none;stroke-width:1pt;stroke-opacity:1;fill:#000000;fill-opacity:1"
         transform="scale(0.8) translate(12.5,0)" />
    </marker>
    <marker
       inkscape:stockid="Arrow1Lstart"
       orient="auto"
       refY="0.0"
       refX="0.0"
       id="Arrow1Lstart"
       style="overflow:visible"
       inkscape:isstock="true">
      <path
         id="path842"
         d="M 0.0,0.0 L 5.0,-5.0 L -12.5,0.0 L 5.0,5.0 L 0.0,0.0 z "
         style="fill-rule:evenodd;stroke:none;stroke-width:1pt;stroke-opacity:1;fill:#000000;fill-opacity:1"
         transform="scale(0.8) translate(12.5,0)" />
    </marker>
  </defs>
  <sodipodi:namedview
     pagecolor="#ffffff"
     bordercolor="#666666"
     borderopacity="1"
     objecttolerance="10"
     gridtolerance="10"
     guidetolerance="10"
     inkscape:pageopacity="0"
     inkscape:pageshadow="2"
     inkscape:window-width="1920"
     inkscape:window-height="1000"
     id="namedview27"
     showgrid="false"
     inkscape:zoom="0.65186406"
     inkscape:cx="260.4563"
     inkscape:cy="351.4268"
     inkscape:window-x="1920"
     inkscape:window-y="0"
     inkscape:window-maximized="1"
     inkscape:current-layer="Capa_1" />
  <g
     id="g24"
     transform="matrix(1.5303241,0,0,1.5303241,3.4748288,-301.52599)">
    <g
       id="g22"
       style="stroke-width:0.2;stroke-miterlimit:4;stroke-dasharray:none">
      <path
         d="M 284.041,225.624 H 48.422 c -26.691,0 -48.407,21.715 -48.407,48.407 v 121.698 c 0,26.692 21.715,48.407 48.407,48.407 h 1.691 l -9.693,53.819 c -0.916,5.087 1.525,10.155 6.074,12.609 4.605,2.484 10.172,1.668 13.873,-1.847 l 66.367,-62.999 c 1.075,-1.021 2.482,-1.582 3.964,-1.582 H 284.04 c 26.692,0 48.407,-21.715 48.407,-48.407 V 274.031 c 0.002,-26.692 -21.714,-48.407 -48.406,-48.407 z m 33.407,170.105 c 0,18.42 -14.987,33.407 -33.407,33.407 H 130.699 c -5.342,0 -10.417,2.025 -14.292,5.703 l -59.561,56.538 8.416,-46.727 c 1.457,-8.089 -4.764,-15.515 -12.97,-15.515 h -3.87 c -18.42,0 -33.406,-14.987 -33.406,-33.407 V 274.031 c 0,-18.42 14.986,-33.407 33.406,-33.407 h 235.619 c 18.42,0 33.407,14.987 33.407,33.407 z"
         id="path16"
         style="fill:#000000;fill-opacity:1;stroke-width:3;stroke-miterlimit:4;stroke-dasharray:none"
         inkscape:connector-curvature="0" />
    </g>
  </g>
  <text
     xml:space="preserve"
     style="font-style:normal;font-weight:normal;font-size:77.28067017px;line-height:125%;font-family:sans-serif;letter-spacing:0px;word-spacing:0px;fill:#000000;fill-opacity:1;stroke:none;stroke-width:1.93201685px;stroke-linecap:butt;stroke-linejoin:miter;stroke-opacity:1"
     x="-58.493786"
     y="262.87234"
     id="text840"><tspan
       sodipodi:role="line"
       id="tspan838"
       x="-58.493786"
       y="262.87234"
       style="font-style:normal;font-variant:normal;font-weight:bold;font-stretch:normal;font-size:163.23455811px;font-family:sans-serif;-inkscape-font-specification:'sans-serif, Bold';font-variant-ligatures:normal;font-variant-caps:normal;font-variant-numeric:normal;font-feature-settings:normal;text-align:start;writing-mode:lr-tb;text-anchor:start;stroke-width:1.93201685px"> MACs </tspan></text>
</svg>
